HIERARCHY
ROOT joint_Root
{
	OFFSET 0.0 0.0 0.0
	CHANNELS 6 Xposition Yposition Zposition Zrotation Xrotation Yrotation 
	JOINT Hips
	{
		OFFSET 4.5925 91.4895 -427.239
		CHANNELS 6 Xposition Yposition Zposition Zrotation Xrotation Yrotation 
		JOINT Spine
		{
			OFFSET 15.7357 0.0 0.0
			CHANNELS 6 Xposition Yposition Zposition Zrotation Xrotation Yrotation 
			JOINT Chest
			{
				OFFSET 8.98455 -0.406207 0.0
				CHANNELS 6 Xposition Yposition Zposition Zrotation Xrotation Yrotation 
				JOINT Neck
				{
					OFFSET 16.3773 0.0 0.0
					CHANNELS 6 Xposition Yposition Zposition Zrotation Xrotation Yrotation 
					JOINT Head
					{
						OFFSET 6.45672 0.0 0.0
						CHANNELS 6 Xposition Yposition Zposition Zrotation Xrotation Yrotation 
						End Site
						{
							OFFSET 0.0 0.0 0.0
						}
					}
				}
				JOINT Shoulder_L
				{
					OFFSET 12.9942 -0.242716 4.98039
					CHANNELS 6 Xposition Yposition Zposition Zrotation Xrotation Yrotation 
					JOINT UpperArm_L
					{
						OFFSET 5.34809 0.0 0.0
						CHANNELS 6 Xposition Yposition Zposition Zrotation Xrotation Yrotation 
						JOINT LowerArm_L
						{
							OFFSET 24.3286 1.87007e-05 0.0
							CHANNELS 6 Xposition Yposition Zposition Zrotation Xrotation Yrotation 
							JOINT Hand_L
							{
								OFFSET 22.2916 0.0 0.0
								CHANNELS 6 Xposition Yposition Zposition Zrotation Xrotation Yrotation 
								End Site
								{
									OFFSET 0.0 0.0 0.0
								}
							}
						}
					}
				}
				JOINT Shoulder_R
				{
					OFFSET 12.9945 -0.242716 -4.98039
					CHANNELS 6 Xposition Yposition Zposition Zrotation Xrotation Yrotation 
					JOINT UpperArm_R
					{
						OFFSET -5.34813 0.0 0.0
						CHANNELS 6 Xposition Yposition Zposition Zrotation Xrotation Yrotation 
						JOINT LowerArm_R
						{
							OFFSET -24.3289 0.000322201 0.0
							CHANNELS 6 Xposition Yposition Zposition Zrotation Xrotation Yrotation 
							JOINT Hand_R
							{
								OFFSET -22.2915 -0.000108084 0.0
								CHANNELS 6 Xposition Yposition Zposition Zrotation Xrotation Yrotation 
								End Site
								{
									OFFSET 0.0 0.0 0.0
								}
							}
						}
					}
				}
			}
		}
		JOINT UpperLeg_L
		{
			OFFSET -2.19248 -6.46944 0.0
			CHANNELS 6 Xposition Yposition Zposition Zrotation Xrotation Yrotation 
			JOINT LowerLeg_L
			{
				OFFSET 39.0811 0.0 -1.23785e-05
				CHANNELS 6 Xposition Yposition Zposition Zrotation Xrotation Yrotation 
				JOINT Foot_L
				{
					OFFSET 40.9854 0.0 -1.26872e-05
					CHANNELS 6 Xposition Yposition Zposition Zrotation Xrotation Yrotation 
					JOINT Toes_L
					{
						OFFSET 11.7543 0.0 0.0
						CHANNELS 6 Xposition Yposition Zposition Zrotation Xrotation Yrotation 
						End Site
						{
							OFFSET 0.0 0.0 0.0
						}
					}
				}
			}
		}
		JOINT UpperLeg_R
		{
			OFFSET -2.19251 6.46944 0.0
			CHANNELS 6 Xposition Yposition Zposition Zrotation Xrotation Yrotation 
			JOINT LowerLeg_R
			{
				OFFSET -39.0811 -0.00228153 -0.0401928
				CHANNELS 6 Xposition Yposition Zposition Zrotation Xrotation Yrotation 
				JOINT Foot_R
				{
					OFFSET -40.9854 0.0 0.0
					CHANNELS 6 Xposition Yposition Zposition Zrotation Xrotation Yrotation 
					JOINT Toes_R
					{
						OFFSET -11.7543 0.0 0.0
						CHANNELS 6 Xposition Yposition Zposition Zrotation Xrotation Yrotation 
						End Site
						{
							OFFSET 0.0 0.0 0.0
						}
					}
				}
			}
		}
	}
}
MOTION
Frames:	6
Frame Time:	0.0333333
0.000000 0.000000 0.000000 0.000000 0.000000 -0.000000 -1.124410 91.618500 1.560850 89.778100 0.641626 3.377430 15.735700 0.000005 -0.000001 84.467300 87.113800 -84.646400 8.984550 -0.406207 -0.000000 -2.021400 -0.541095 -0.367495 16.377300 -0.000001 -0.000001 5.467270 -3.505680 2.035190 6.456720 -0.000001 -0.000000 -1.630390 -3.406240 -0.960154 12.994200 -0.242716 4.980390 -83.612500 -10.961800 -59.514100 5.348090 -0.000007 -0.000001 -46.291700 -62.012200 -93.950200 24.328600 0.000019 0.000005 9.743370 9.592660 -45.858300 22.291600 -0.000001 0.000005 25.298800 5.383710 -2.415350 12.994500 -0.242716 -4.980390 95.162700 -10.795600 -64.248600 -5.348130 -0.000001 -0.000004 -59.218400 -58.072200 -106.109000 -24.328900 0.000322 -0.000009 -1.727270 -1.784130 -44.066100 -22.291500 -0.000108 -0.000004 22.564800 5.612470 -12.117000 -2.192480 -6.469440 -0.000000 -175.726000 -10.936500 -3.283190 39.081100 -0.000007 -0.000012 -0.151463 0.323312 25.102000 40.985400 -0.000006 -0.000013 -0.155782 7.286070 -68.388500 11.754300 -0.000000 0.000003 -0.000228 -0.002070 -16.655300 -2.192510 6.469440 -0.000001 176.405000 24.300300 177.799000 -39.081100 -0.002282 -0.040193 0.010357 -0.014843 25.392000 -40.985400 0.000008 0.000006 5.670810 10.588900 -70.082600 -11.754300 -0.000006 -0.000006 -0.001947 -0.028056 -17.713900
0.000000 0.000000 0.000000 0.000000 0.000000 -0.000000 -1.176660 91.625200 1.526520 89.723300 0.263888 3.351570 15.735700 0.000005 -0.000001 85.261500 87.078300 -85.468600 8.984550 -0.406207 -0.000000 -1.943380 -0.465051 -0.421866 16.377300 -0.000001 -0.000001 5.440870 -3.502330 2.010360 6.456720 -0.000001 -0.000000 -1.698560 -3.447190 -0.861894 12.994200 -0.242716 4.980390 -83.633800 -10.865700 -59.380000 5.348090 -0.000007 -0.000001 -46.609100 -62.363500 -94.242000 24.328600 0.000019 0.000005 9.593640 9.527310 -45.600200 22.291600 -0.000001 0.000005 25.002100 5.384080 -2.427190 12.994500 -0.242716 -4.980390 95.102000 -10.721500 -64.362400 -5.348130 -0.000001 -0.000004 -57.894000 -58.526900 -104.922000 -24.328900 0.000322 -0.000009 -1.548640 -1.619130 -43.714500 -22.291500 -0.000108 -0.000004 22.165100 5.605800 -11.694500 -2.192480 -6.469440 -0.000000 -175.639000 -11.145200 -3.270520 39.081100 -0.000007 -0.000012 -0.152479 0.325791 25.081000 40.985400 -0.000006 -0.000013 -0.225035 7.140870 -68.377700 11.754300 -0.000000 0.000003 -0.000234 -0.002115 -16.657000 -2.192510 6.469440 -0.000001 176.488000 24.300600 177.750000 -39.081100 -0.002282 -0.040193 0.009028 -0.012084 25.316900 -40.985400 0.000008 0.000006 5.686340 10.942000 -70.043500 -11.754300 -0.000006 -0.000006 -0.001833 -0.026606 -17.655000
0.000000 0.000000 0.000000 0.000000 0.000000 -0.000000 -1.228580 91.636600 1.475920 89.659500 -0.020610 3.332410 15.735700 0.000005 -0.000001 85.349000 87.026500 -85.572900 8.984550 -0.406207 -0.000000 -1.839410 -0.463354 -0.455046 16.377300 -0.000001 -0.000001 5.305910 -3.550200 2.026410 6.456720 -0.000001 -0.000000 -1.741550 -3.471540 -0.860218 12.994200 -0.242716 4.980390 -83.733600 -10.663100 -59.313000 5.348090 -0.000007 -0.000001 -45.841300 -62.678600 -93.067100 24.328600 0.000019 0.000005 9.375910 9.145310 -46.092200 22.291600 -0.000001 0.000005 24.384500 5.383710 -2.415680 12.994500 -0.242716 -4.980390 95.011300 -10.583600 -64.479400 -5.348130 -0.000001 -0.000004 -56.154500 -58.832100 -102.923000 -24.328900 0.000322 -0.000009 -1.761260 -1.842890 -43.697500 -22.291500 -0.000108 -0.000004 21.632000 5.597830 -11.211100 -2.192480 -6.469440 -0.000000 -175.537000 -11.310200 -3.269550 39.081100 -0.000007 -0.000012 -0.152564 0.326426 25.050500 40.985400 -0.000006 -0.000013 -0.292245 7.042000 -68.342200 11.754300 -0.000000 0.000003 -0.000237 -0.002139 -16.657800 -2.192510 6.469440 -0.000001 176.600000 24.294800 177.705000 -39.081100 -0.002282 -0.040193 0.009353 -0.012810 25.248700 -40.985400 0.000008 0.000006 5.858990 11.194500 -70.023500 -11.754300 -0.000006 -0.000006 -0.001822 -0.026461 -17.649100
0.000000 0.000000 0.000000 0.000000 0.000000 -0.000000 -1.269660 91.637000 1.441460 89.572300 -0.290187 3.332630 15.735700 0.000005 -0.000001 85.462900 86.969600 -85.693000 8.984550 -0.406207 -0.000000 -1.725120 -0.460281 -0.466837 16.377300 -0.000001 -0.000001 5.178140 -3.602220 2.019260 6.456720 -0.000001 -0.000000 -1.772010 -3.445610 -0.779555 12.994200 -0.242716 4.980390 -83.874200 -10.427800 -59.333200 5.348090 -0.000007 -0.000001 -44.519500 -62.551400 -90.542700 24.328600 0.000019 0.000005 9.076990 8.355310 -47.712500 22.291600 -0.000001 0.000005 23.399400 5.385050 -2.457350 12.994500 -0.242716 -4.980390 94.868700 -10.365700 -64.666900 -5.348130 -0.000001 -0.000004 -53.565900 -58.878600 -99.376100 -24.328900 0.000322 -0.000009 -2.193740 -2.243260 -44.365600 -22.291500 -0.000108 -0.000004 21.025600 5.581850 -10.308900 -2.192480 -6.469440 -0.000000 -175.407000 -11.545400 -3.282020 39.081100 -0.000007 -0.000012 -0.154294 0.329283 25.106800 40.985400 -0.000006 -0.000013 -0.330704 6.990780 -68.358600 11.754300 -0.000000 0.000003 -0.000234 -0.002114 -16.656900 -2.192510 6.469440 -0.000001 176.717000 24.239600 177.696000 -39.081100 -0.002282 -0.040193 0.008098 -0.010184 25.170100 -40.985400 0.000008 0.000006 5.906840 11.401000 -70.013300 -11.754300 -0.000006 -0.000006 -0.001766 -0.025751 -17.620200
0.000000 0.000000 0.000000 0.000000 0.000000 -0.000000 -1.296130 91.640300 1.395960 89.528900 -0.481193 3.357950 15.735700 0.000005 -0.000001 85.397600 86.902600 -85.641500 8.984550 -0.406207 -0.000000 -1.592180 -0.477039 -0.494344 16.377300 -0.000001 -0.000001 5.024480 -3.631160 1.975030 6.456720 -0.000001 -0.000000 -1.789380 -3.417040 -0.625597 12.994200 -0.242716 4.980390 -84.094100 -10.122100 -59.519100 5.348090 -0.000007 -0.000001 -41.872500 -61.770800 -85.696400 24.328600 0.000019 0.000005 8.770130 7.211860 -50.865000 22.291600 -0.000001 0.000005 22.833500 5.385350 -2.467520 12.994500 -0.242716 -4.980390 94.570000 -9.911480 -65.091200 -5.348130 -0.000001 -0.000004 -49.269700 -58.645700 -93.545300 -24.328900 0.000322 -0.000009 -2.983610 -2.900810 -45.830800 -22.291500 -0.000108 -0.000004 20.530600 5.565010 -9.434550 -2.192480 -6.469440 -0.000000 -175.348000 -11.571100 -3.269490 39.081100 -0.000007 -0.000012 -0.154543 0.329587 25.122000 40.985400 -0.000006 -0.000013 -0.377736 6.874100 -68.348500 11.754300 -0.000000 0.000003 -0.000233 -0.002106 -16.656600 -2.192510 6.469440 -0.000001 176.761000 24.180200 177.697000 -39.081100 -0.002282 -0.040193 0.003290 0.000046 25.135600 -40.985400 0.000008 0.000006 5.839010 11.553300 -69.948400 -11.754300 -0.000006 -0.000006 -0.001767 -0.025757 -17.620400
0.000000 0.000000 0.000000 0.000000 0.000000 -0.000000 -1.317030 91.634900 1.355950 89.452500 -0.703307 3.437910 15.735700 0.000005 -0.000001 85.749400 86.816100 -85.989600 8.984550 -0.406207 -0.000000 -1.416690 -0.452619 -0.485855 16.377300 -0.000001 -0.000001 4.892240 -3.658630 1.944350 6.456720 -0.000001 -0.000000 -1.860240 -3.364390 -0.565735 12.994200 -0.242716 4.980390 -84.489100 -9.626770 -60.017600 5.348090 -0.000007 -0.000001 -38.092900 -60.201600 -78.639500 24.328600 0.000019 0.000005 8.738390 6.009180 -55.743500 22.291600 -0.000001 0.000005 22.392900 5.385520 -2.472640 12.994500 -0.242716 -4.980390 94.207100 -9.348300 -65.636300 -5.348130 -0.000001 -0.000004 -44.279500 -57.511000 -85.916500 -24.328900 0.000322 -0.000009 -4.369640 -3.848660 -48.691300 -22.291500 -0.000108 -0.000004 20.295400 5.551390 -8.771970 -2.192480 -6.469440 -0.000000 -175.239000 -11.691500 -3.234130 39.081100 -0.000007 -0.000012 -0.155941 0.331110 25.218900 40.985400 -0.000006 -0.000013 -0.405348 6.791300 -68.381700 11.754300 -0.000000 0.000003 -0.000235 -0.002121 -16.657200 -2.192510 6.469440 -0.000001 176.822000 24.120500 177.720000 -39.081100 -0.002282 -0.040193 0.001667 0.003502 25.151900 -40.985400 0.000008 0.000006 5.841200 11.718700 -69.915300 -11.754300 -0.000006 -0.000006 -0.001763 -0.025714 -17.618700
